<svg xmlns="http://www.w3.org/2000/svg" width="120.686" height="47.235" viewBox="0 0 120.686 47.235">
  <g id="ARB_Logo_" data-name="ARB Logo " transform="translate(-891.979 -10.98)">
    <g id="Group_9" data-name="Group 9" transform="translate(891.979 10.98)">
      <g id="Group_5" data-name="Group 5" transform="translate(0 0)">
        <g id="Group_1" data-name="Group 1">
          <rect id="Rectangle_2" data-name="Rectangle 2" width="36.188" height="35.22" transform="translate(1.021 1.021)" fill="#0e0e70"/>
          <path id="Path_1" data-name="Path 1" d="M129.5,109.426H91.268V72.163H129.5Zm-36.188-2.043h34.145V74.206H93.311Z" transform="translate(-91.268 -72.163)"/>
        </g>
        <g id="Group_2" data-name="Group 2" transform="translate(41.561)">
          <rect id="Rectangle_3" data-name="Rectangle 3" width="36.188" height="35.22" transform="translate(1.021 1.021)" fill="#0e0e70"/>
          <path id="Path_2" data-name="Path 2" d="M565.54,109.426H527.31V72.163h38.23Zm-36.187-2.043H563.5V74.206H529.353Z" transform="translate(-527.31 -72.163)"/>
        </g>
        <g id="Group_3" data-name="Group 3" transform="translate(82.455)">
          <rect id="Rectangle_4" data-name="Rectangle 4" width="36.188" height="35.22" transform="translate(1.021 1.021)" fill="#0e0e70"/>
          <path id="Path_3" data-name="Path 3" d="M994.58,109.426H956.35V72.163h38.23Zm-36.187-2.043h34.145V74.206H958.393Z" transform="translate(-956.35 -72.163)"/>
        </g>
        <g id="Group_4" data-name="Group 4" transform="translate(0.863 39.248)">
          <path id="Path_4" data-name="Path 4" d="M107.3,490.607a12.035,12.035,0,0,1-.594,1.735,10.1,10.1,0,0,1-2.014.268c-3.039,0-4.369-1.893-4.369-3.932,0-2.353,1.764-3.982,4.533-3.982a13.758,13.758,0,0,1,2.1.237c.037.574.108,1.261.171,1.738l-.207.042a2,2,0,0,0-1.156-1.537,3.1,3.1,0,0,0-1.225-.206c-1.9,0-2.752,1.595-2.752,3.489,0,2.274,1.117,3.866,3.01,3.866,1.19,0,1.8-.685,2.314-1.786Z" transform="translate(-100.321 -484.623)"/>
          <path id="Path_5" data-name="Path 5" d="M206.472,492.652v-.17c.765-.155.836-.271.646-.811-.147-.425-.384-1.117-.672-1.88h-2.261c-.224.609-.427,1.159-.583,1.627-.27.785-.146.882.847,1.064v.17h-2.558v-.17c.746-.124.918-.251,1.345-1.309l2.476-6.2.268-.038c.748,2.083,1.524,4.148,2.317,6.233.4,1.082.529,1.158,1.266,1.314v.17Zm-1.127-5.967c-.374.976-.678,1.846-1.025,2.745h1.995Z" transform="translate(-192.21 -484.84)"/>
          <path id="Path_6" data-name="Path 6" d="M312.967,492.133c-.091.463-.384,1.59-.476,1.851h-5.523v-.17c1.055-.147,1.115-.241,1.115-1.227v-4.794c0-1.009-.092-1.075-1.008-1.214v-.17h3.242v.17c-.892.159-.975.228-.975,1.214v5.033c0,.767.182.825.85.825.211,0,.558,0,.746,0,.666,0,.875-.065,1.185-.4a4.34,4.34,0,0,0,.669-1.158Z" transform="translate(-287.271 -486.172)"/>
          <path id="Path_7" data-name="Path 7" d="M403.422,492.133c-.091.463-.384,1.59-.477,1.851h-5.523v-.17c1.055-.147,1.115-.241,1.115-1.227v-4.794c0-1.009-.092-1.075-1.008-1.214v-.17h3.242v.17c-.892.159-.975.228-.975,1.214v5.033c0,.767.182.825.85.825.211,0,.558,0,.746,0,.666,0,.875-.065,1.185-.4a4.342,4.342,0,0,0,.669-1.158Z" transform="translate(-369.104 -486.172)"/>
          <path id="Path_8" data-name="Path 8" d="M540.338,487.867a3.464,3.464,0,0,0-.3-.767c-.223-.447-.5-.575-1.314-.575h-.974c-.346,0-.413.05-.413.387V489.7h1.4c.876,0,.943-.15,1.142-.97h.171v2.293h-.179c-.21-.809-.267-.978-1.143-.978h-1.393v2.19c0,1.11.063,1.2,1.1,1.359v.17h-3.343v-.17c.893-.139.985-.241.985-1.359v-4.571c0-1.085-.084-1.151-.985-1.306v-.17h3.67c1.15,0,1.53-.011,1.661-.023,0,.242.039,1.126.095,1.679Z" transform="translate(-493.654 -485.952)"/>
          <path id="Path_9" data-name="Path 9" d="M619.642,492.652v-.17c.766-.155.836-.271.646-.811-.147-.425-.384-1.117-.672-1.88h-2.261c-.224.609-.428,1.159-.583,1.627-.271.785-.146.882.847,1.064v.17h-2.558v-.17c.746-.124.918-.251,1.345-1.309l2.476-6.2.268-.038c.748,2.083,1.524,4.148,2.317,6.233.4,1.082.529,1.158,1.266,1.314v.17Zm-1.127-5.967c-.374.976-.678,1.846-1.025,2.745h2Z" transform="translate(-565.999 -484.84)"/>
          <path id="Path_10" data-name="Path 10" d="M723.435,490.607a12.044,12.044,0,0,1-.594,1.735,10.1,10.1,0,0,1-2.013.268c-3.039,0-4.369-1.893-4.369-3.932,0-2.353,1.764-3.982,4.533-3.982a13.759,13.759,0,0,1,2.1.237c.037.574.107,1.261.171,1.738l-.207.042a2,2,0,0,0-1.156-1.537,3.1,3.1,0,0,0-1.225-.206c-1.9,0-2.752,1.595-2.752,3.489,0,2.274,1.117,3.866,3.01,3.866,1.19,0,1.8-.685,2.315-1.786Z" transform="translate(-657.731 -484.623)"/>
          <path id="Path_11" data-name="Path 11" d="M822.615,493.984v-.17c.912-.156.985-.246.985-1.264v-4.711c0-1.043-.084-1.124-.985-1.26v-.17h3.24v.17c-.905.143-1,.21-1,1.26v4.7c0,1.037.076,1.112,1,1.272v.17Z" transform="translate(-753.77 -486.172)"/>
          <path id="Path_12" data-name="Path 12" d="M893.4,492.133c-.091.463-.384,1.59-.476,1.851H887.4v-.17c1.055-.147,1.115-.241,1.115-1.227v-4.794c0-1.009-.092-1.075-1.008-1.214v-.17h3.242v.17c-.891.159-.975.228-.975,1.214v5.033c0,.767.182.825.85.825.211,0,.558,0,.746,0,.666,0,.875-.065,1.185-.4a4.342,4.342,0,0,0,.669-1.158Z" transform="translate(-812.376 -486.172)"/>
          <path id="Path_13" data-name="Path 13" d="M979.216,493.984v-.17c.912-.156.985-.246.985-1.264v-4.711c0-1.043-.084-1.124-.985-1.26v-.17h3.24v.17c-.905.143-1,.21-1,1.26v4.7c0,1.037.076,1.112,1,1.272v.17Z" transform="translate(-895.444 -486.172)"/>
          <path id="Path_14" data-name="Path 14" d="M1051.2,485.866a2.6,2.6,0,0,0-.421-.96c-.2-.307-.359-.41-1.005-.41h-1.159v5.87c0,.957.107,1.063,1.08,1.21v.17h-3.376v-.17c.935-.178,1.036-.242,1.036-1.21v-5.87h-1.237c-.568,0-.7.157-.866.376a3.5,3.5,0,0,0-.458,1.009h-.2c.068-.629.128-1.357.156-1.948h.15c.182.228.332.236.7.236h4.881a.764.764,0,0,0,.67-.236h.151c0,.508.025,1.294.084,1.905Z" transform="translate(-954.591 -483.933)"/>
          <path id="Path_15" data-name="Path 15" d="M1146.715,493.984v-.17c.912-.156.985-.246.985-1.264v-4.711c0-1.043-.084-1.124-.985-1.26v-.17h3.24v.17c-.905.143-1,.21-1,1.26v4.7c0,1.037.076,1.112,1,1.272v.17Z" transform="translate(-1046.978 -486.172)"/>
          <path id="Path_16" data-name="Path 16" d="M1217.537,492c-.06.4-.275,1.464-.355,1.769H1211.5v-.17c1.035-.14,1.115-.206,1.115-1.215V487.6c0-1.033-.051-1.118-.928-1.24v-.17h3.535c1.12,0,1.548-.007,1.69-.023.008.431.056,1.209.107,1.653l-.183.031a3.281,3.281,0,0,0-.463-.989c-.219-.281-.44-.334-1.145-.334h-1.038c-.276,0-.315.043-.315.308v2.757h1.271c.9,0,.959-.22,1.118-.963h.178V490.9h-.178c-.18-.733-.232-.963-1.109-.963h-1.28v2.581c0,.8.229.91.944.918h.872c.659,0,.826-.1,1.124-.457a4.2,4.2,0,0,0,.555-1.013Z" transform="translate(-1105.585 -485.952)"/>
          <path id="Path_17" data-name="Path 17" d="M1311.967,486.482a1.714,1.714,0,0,0-1.714-1.526,1.14,1.14,0,0,0-1.185,1.265c0,.791.451,1.145,1.445,1.719s1.951,1.183,1.951,2.419a2.4,2.4,0,0,1-2.642,2.251,6.573,6.573,0,0,1-1.766-.3c-.072-.254-.251-1.507-.267-1.706l.183-.035A2.144,2.144,0,0,0,1310,492.35a1.239,1.239,0,0,0,1.274-1.41c0-.791-.5-1.3-1.349-1.8-1.012-.6-1.921-1.186-1.921-2.371a2.185,2.185,0,0,1,2.455-2.068,9.421,9.421,0,0,1,1.492.164c.048.423.115,1.032.2,1.587Z" transform="translate(-1192.698 -484.623)"/>
        </g>
      </g>
      <g id="Group_6" data-name="Group 6" transform="translate(4.344 3.274)">
        <path id="Path_18" data-name="Path 18" d="M155.55,137.027v-1.345c2.962-.371,3.262-.833,2.621-2.6-.571-1.7-1.454-3.926-2.367-6.6H146.08c-.692,1.928-1.371,3.691-1.979,5.47-1,2.934-.276,3.3,3.457,3.727v1.345H136.841v-1.345c2.887-.363,3.62-.7,5.215-4.734l.325-.851.869-2.275,1.255-3.284,1.481-3.877,1.549-4.054,1.458-3.815,1.207-3.16c.3-.8.626-1.574.9-2.394a1.054,1.054,0,0,1,.326-.542,1.015,1.015,0,0,1,1.487.352c2.8,7.54,6.389,16.409,9.182,23.916,1.508,4,1.92,4.353,5.124,4.716v1.345Zm-4.483-23.745c-1.441,3.789-2.95,7.724-4.283,11.261h8.337Z" transform="translate(-136.841 -106.516)" fill="#fff"/>
      </g>
      <g id="Group_7" data-name="Group 7" transform="translate(48.892 4.571)">
        <path id="Path_19" data-name="Path 19" d="M632.647,148.476a52.483,52.483,0,0,1-5.537-.205,7.944,7.944,0,0,1-2.526-.514,6.26,6.26,0,0,1-1.807-1.338c-.326-.333-.628-.689-.923-1.05q-1.509-1.851-2.961-3.747c-.9-1.182-1.723-2.384-2.548-3.622-.782-1.374-1.322-1.639-3.27-1.639l-1.323-.008V143.2c0,3.723.443,3.959,3.682,4.321v1.308h-11.22V147.52c3.347-.39,3.648-.6,3.648-4.321V125.7c0-3.707-.443-3.9-3.648-4.277v-1.308h10.7c3.107,0,5.128.405,6.706,1.534a6.783,6.783,0,0,1,2.777,5.839,9.161,9.161,0,0,1-.432,2.85,7.739,7.739,0,0,1-1.215,2.307,8.3,8.3,0,0,1-1.862,1.755,9.725,9.725,0,0,1-1.5.85c.171-.078.9,1,1.01,1.138.542.689,1.047,1.408,1.581,2.1q.93,1.212,1.889,2.4.479.594.966,1.183c.146.176.294.348.448.517a20,20,0,0,0,3.068,3.032,8.72,8.72,0,0,0,3.889,1.565l.408.05C632.647,147.346,632.647,148.476,632.647,148.476Zm-19.084-13.681c2.063,0,3.414-.345,4.416-1.257a6.428,6.428,0,0,0,2.193-5.385c0-4.718-2.833-6.433-5.831-6.433a3.344,3.344,0,0,0-2.119.442c-.354.3-.469.759-.469,1.86v10.774Z" transform="translate(-604.215 -120.117)" fill="#fff"/>
      </g>
      <g id="Group_8" data-name="Group 8" transform="translate(90.903 4.817)">
        <path id="Path_20" data-name="Path 20" d="M1058.805,135.7c3.856.724,6.909,2.77,6.909,7a7.727,7.727,0,0,1-3.825,6.728,12.428,12.428,0,0,1-6.955,1.731h-9.959v-1.3c3.3-.35,3.52-.713,3.52-4.212v-17.4c0-3.643-.384-3.965-3.513-4.256v-1.3h10.648c2.97,0,4.833.546,6.155,1.533a5.883,5.883,0,0,1,2.345,4.9A6.758,6.758,0,0,1,1058.805,135.7Zm-4.628-.533c4.239,0,5.945-1.9,5.945-5.431,0-3.2-1.8-5.4-5.3-5.4a3.716,3.716,0,0,0-2.148.422c-.337.271-.428.737-.428,2.051v8.356Zm-1.929,10.4c0,3.153.785,3.973,3.469,3.965,2.918-.008,5.764-1.895,5.764-6.4,0-4.427-2.681-6.37-7.429-6.37h-1.8Z" transform="translate(-1044.975 -122.702)" fill="#fff"/>
      </g>
    </g>
  </g>
</svg>
